<svg width="1438" height="237" viewBox="0 0 1438 237" fill="none" xmlns="http://www.w3.org/2000/svg">
<path d="M20.5708 162.865C18.2584 134.539 112.385 145.752 158.633 154.906L166.478 156.361V157.084V186.711H122.399V165.575M20.5708 162.865L21.2332 186.711L47.2472 186.662V172.933M20.5708 162.865C21.2284 170.921 32.9017 172.006 47.2472 172.933M363.752 146.955C359.696 140.241 350.882 136.098 339.183 133.839M47.2472 172.933C47.9582 172.979 49.4036 172.949 50.1377 172.982M363.752 234.404H357.971L347.854 214.171H323.285L331.957 234.404H327.621L318.95 214.171H289.323L298.717 234.404H294.381L284.987 214.171H251.747L258.973 234.404H254.637L246.688 214.171H213.877L217.49 234.404H212.726L209.835 214.171H170.091V234.404H166.478V214.171H123.844L120.954 232.958H118.063L120.954 214.171H84.1005L78.3196 232.958H74.7065L80.4874 214.171H52.4795L47.9699 232.958H45.0794L49.4151 214.171H24.1236L19.7879 232.958H1V230.791H17.6201L21.9558 212.003L19.0653 186.711L18.3427 162.865V159.975H20.5106M50.1377 172.982V186.711H78.3196V172.982M50.1377 172.982C59.1013 173.377 69.0346 173.301 80.4874 172.053M80.4874 172.053V186.711H119.509V166.119M80.4874 172.053C92.9364 170.696 106.327 168.571 119.509 166.119M119.509 166.119C120.473 165.939 121.437 165.758 122.399 165.575M122.399 165.575C138.177 162.576 153.533 159.152 166.478 156.064C167.456 155.831 168.42 155.599 169.369 155.37M169.369 155.37C188.246 150.816 201.347 147.15 201.932 146.955C205.073 146.181 208.443 145.387 212.003 144.586M169.369 155.37V186.711H209.835L212.003 144.586M212.003 144.586C213.65 144.216 215.337 143.844 217.061 143.472M250.302 186.711H248.856M258.973 135.937L251.024 186.711H248.856M258.973 135.937C244.075 138.073 229.6 140.77 217.061 143.472M258.973 135.937C273.741 133.82 288.925 132.254 303.052 131.779M248.856 186.711H213.877L216.044 144.586L217.061 143.472M263.309 135.937L255.36 186.711H290.768L303.052 131.779M303.052 131.779C304.509 131.73 305.955 131.693 307.388 131.667M307.388 131.667L295.104 186.711H323.285L334.847 133.106M307.388 131.667C317.342 131.492 326.675 131.906 334.847 133.106M334.847 133.106C336.332 133.324 337.778 133.568 339.183 133.839M339.183 133.839L326.898 186.711H353.635L364.474 149.858L363.752 146.967M294.381 189.602L289.323 211.28H318.95L323.285 189.209H294.381M21.9558 189.602L24.1236 211.28H49.4151L47.2472 189.602H21.9558ZM323.285 210.557H347.854L353.635 189.602H326.898L322.563 210.557H323.285ZM52.4795 211.28L50.1377 189.602H78.3196L81.2101 211.28H52.4795ZM81.2101 189.602L84.1005 211.28H120.954L119.509 189.602H81.2101ZM122.399 189.602L123.844 211.28H166.478V189.602H122.399ZM169.369 189.602V211.28H209.835V189.602H169.369ZM213.877 211.28V189.602H250.302L246.688 211.28H213.877ZM254.637 189.602L251.024 211.28H284.987L290.045 189.602H254.637Z" stroke="#478480" stroke-width="1.5"/>
<path d="M363.75 234.402V214.169H386.151V169.367H396.99V162.863H427.34V170.089H435.289V224.285H448.296V74.7043H493.098V177.315H504.66V214.169H529.228V182.374H540.068V78.3174C549.702 77.113 571.718 75.4269 582.702 78.3174V217.782L602.212 204.775H610.161V136.849H642.679V86.2661H667.248V146.243H680.977V170.089H709.882V177.315H719.276V204.775H723.611V234.402C728.91 235.606 739.364 237.292 738.786 234.402C738.208 231.511 738.545 141.185 738.786 96.3827H793.705V198.994L802.376 219.95H816.106V90.6018H823.332V108.667H846.456V90.6018H854.404V181.651H882.586V117.338H996.036V191.045H1019.16V204.775H1037.95V132.513L1055.29 129.623L1095.03 132.513V198.994L1126.83 201.162L1124.66 206.22C1134.56 205.211 1150.77 204.258 1170.91 204.135M1170.19 204.158C1178.01 180.071 1193.19 128.322 1194.2 105.777M1194.03 111.558C1194.1 109.816 1194.16 107.877 1194.2 105.777M1231.09 206.493C1228.2 199.267 1216.92 141.185 1212.82 113.003H1198.37C1198.13 118.784 1194.61 145.231 1182.47 204.775M1194.2 105.777C1194.68 84.9243 1194.03 48.0862 1188.25 29.1797L1198.37 40.0189V60.252H1212.1V40.0189L1223.66 29.1797C1220.77 47.245 1216.29 87.2778 1218.6 111.558C1221.49 128.659 1228.72 173.266 1240.28 206.795C1258.23 208.249 1273.45 210.173 1292.31 213.446V198.994L1330.61 189.6V213.446H1349.39V152.024L1385.52 148.411L1399.25 152.024V225.008H1412.98L1421.66 205.497L1430.33 225.008H1439V234.402M1126.83 222.117C1135.91 221.248 1149.75 220.421 1166.57 220.129L1162.24 234.402M1175.97 234.402L1178.86 220.019C1195.26 220.007 1213.76 220.529 1233.05 221.951L1235.22 234.402M1248.23 234.402L1244.62 222.907C1260.4 224.354 1276.52 226.436 1292.31 229.343V234.402M1182.6 204.158C1198.83 204.189 1212 204.731 1231.61 206.22M1198.37 66.7556V77.5948H1212.1V66.7556H1198.37ZM1198.37 81.2078V93.4922H1212.82V81.2078H1198.37ZM1198.37 97.1053V108.667H1212.82V97.1053H1198.37Z" stroke="#478480" stroke-width="1.5"/>
<path d="M751.069 83.3779V93.4945H781.419V82.6553H751.069M925.219 103.611V113.728H953.4V103.611H925.219ZM464.914 45.802V52.3055H469.972V55.9186H464.914V66.7578H469.972V71.0935H485.87V66.7578H490.928V55.9186H485.87V52.3055H490.928V45.802H482.979V1H472.14V45.802H464.914Z" stroke="#478480" stroke-width="1.5"/>
</svg>
