<svg width="21" height="20" viewBox="0 0 21 20" fill="none" xmlns="http://www.w3.org/2000/svg">
<path d="M17.6241 16.9012H14.5074V12.2984C14.5074 11.2009 14.4866 9.78796 12.8864 9.78796C11.263 9.78796 11.0147 10.9838 11.0147 12.2185V16.9009H7.8979V7.43576H10.89V8.72927H10.9319C11.2313 8.24647 11.664 7.8493 12.1839 7.58006C12.7038 7.31081 13.2913 7.17958 13.884 7.20032C17.043 7.20032 17.6254 9.15973 17.6254 11.7088L17.6241 16.9012ZM4.38117 6.14194C4.02345 6.142 3.67373 6.04203 3.37625 5.85467C3.07878 5.6673 2.84692 5.40096 2.70997 5.08933C2.57301 4.77769 2.53712 4.43476 2.60684 4.10389C2.67657 3.77303 2.84878 3.46909 3.10168 3.23052C3.35459 2.99194 3.67684 2.82944 4.02768 2.76357C4.37852 2.6977 4.74218 2.73142 5.0727 2.86045C5.40322 2.98949 5.68574 3.20805 5.88454 3.4885C6.08333 3.76895 6.18948 4.0987 6.18954 4.43603C6.18959 4.66002 6.14284 4.88181 6.05198 5.08876C5.96113 5.29571 5.82795 5.48376 5.66003 5.64216C5.4921 5.80057 5.29272 5.92624 5.0733 6.01199C4.85387 6.09774 4.61869 6.1419 4.38117 6.14194ZM5.93955 16.9012H2.81955V7.43576H5.93955V16.9012ZM19.178 0.00135143H1.25338C0.846546 -0.00297805 0.45451 0.145182 0.163455 0.413275C-0.1276 0.681368 -0.293863 1.04746 -0.298828 1.4311V18.4041C-0.294033 18.788 -0.127867 19.1543 0.163178 19.4227C0.454223 19.6911 0.846345 19.8395 1.25338 19.8354H19.178C19.5858 19.8402 19.979 19.6922 20.2712 19.4239C20.5634 19.1555 20.7307 18.7887 20.7364 18.4041V1.42988C20.7305 1.04547 20.5631 0.678966 20.2709 0.41088C19.9787 0.142794 19.5856 -0.00494354 19.178 0.000126304" fill="#025750"/>
</svg>
