<svg width="23" height="19" viewBox="0 0 23 19" fill="none" xmlns="http://www.w3.org/2000/svg">
<path d="M7.26176 18.9206C15.8837 18.9206 20.5987 11.6714 20.5987 5.38507C20.5987 5.17917 20.5946 4.9742 20.5855 4.77015C21.5007 4.09865 22.2962 3.26067 22.9236 2.30674C22.0838 2.68562 21.1799 2.94068 20.2318 3.05569C21.1996 2.46673 21.9425 1.53508 22.2931 0.424443C21.3874 0.969342 20.3844 1.36538 19.3166 1.5792C18.4612 0.654522 17.2434 0.0761719 15.895 0.0761719C13.3064 0.0761719 11.2073 2.20664 11.2073 4.83275C11.2073 5.20606 11.2484 5.56917 11.3288 5.91747C7.43302 5.71852 3.9785 3.82552 1.66654 0.947079C1.26398 1.65011 1.03185 2.46676 1.03185 3.33813C1.03185 4.9886 1.85939 6.44564 3.1178 7.29803C2.34876 7.27391 1.62633 7.05966 0.994901 6.70304C0.994211 6.723 0.994208 6.74246 0.994208 6.76379C0.994208 9.0677 2.60996 10.9913 4.75479 11.4272C4.3609 11.5361 3.94649 11.5946 3.51877 11.5946C3.21719 11.5946 2.92337 11.5644 2.63779 11.5088C3.23454 13.399 4.965 14.7745 7.0166 14.8129C5.41228 16.0891 3.39127 16.8492 1.19477 16.8492C0.81688 16.8492 0.443564 16.8274 0.0766602 16.7834C2.15118 18.1329 4.61449 18.9203 7.26202 18.9203" fill="#025750"/>
</svg>
