<svg width="26" height="20" viewBox="0 0 26 20" fill="none" xmlns="http://www.w3.org/2000/svg">
<path d="M13 0C14.0688 0 15.165 0.0275001 16.2275 0.0725001L17.4825 0.1325L18.6838 0.20375L19.8088 0.28L20.8362 0.36C21.9513 0.445347 23.0006 0.921184 23.7994 1.7038C24.5983 2.48642 25.0955 3.52567 25.2038 4.63875L25.2537 5.17L25.3475 6.3075C25.435 7.48625 25.5 8.77125 25.5 10C25.5 11.2288 25.435 12.5138 25.3475 13.6925L25.2537 14.83C25.2375 15.0125 25.2213 15.1887 25.2038 15.3612C25.0955 16.4745 24.598 17.5139 23.7989 18.2966C22.9998 19.0792 21.9503 19.5549 20.835 19.64L19.81 19.7188L18.685 19.7962L17.4825 19.8675L16.2275 19.9275C15.1523 19.9742 14.0762 19.9984 13 20C11.9238 19.9984 10.8477 19.9742 9.7725 19.9275L8.5175 19.8675L7.31625 19.7962L6.19125 19.7188L5.16375 19.64C4.04869 19.5547 2.99944 19.0788 2.20059 18.2962C1.40174 17.5136 0.904468 16.4743 0.79625 15.3612L0.74625 14.83L0.6525 13.6925C0.556922 12.4639 0.506055 11.2323 0.5 10C0.5 8.77125 0.565 7.48625 0.6525 6.3075L0.74625 5.17C0.7625 4.9875 0.77875 4.81125 0.79625 4.63875C0.904426 3.52587 1.40152 2.48677 2.20011 1.70418C2.99871 0.921589 4.04766 0.445628 5.1625 0.36L6.18875 0.28L7.31375 0.20375L8.51625 0.1325L9.77125 0.0725001C10.8469 0.0257912 11.9234 0.00161911 13 0ZM13 2.5C11.9688 2.5 10.9075 2.5275 9.875 2.57L8.6525 2.62875L7.47875 2.6975L6.37625 2.7725L5.36625 2.85125C4.83541 2.88891 4.33506 3.11331 3.95387 3.48466C3.57268 3.85601 3.33528 4.35033 3.28375 4.88C3.1375 6.39125 3 8.2725 3 10C3 11.7275 3.1375 13.6088 3.28375 15.12C3.39 16.21 4.255 17.0575 5.36625 17.1488L6.37625 17.2262L7.47875 17.3013L8.6525 17.3713L9.875 17.43C10.9075 17.4725 11.9688 17.5 13 17.5C14.0312 17.5 15.0925 17.4725 16.125 17.43L17.3475 17.3713L18.5212 17.3025L19.6237 17.2275L20.6338 17.1488C21.1646 17.1111 21.6649 16.8867 22.0461 16.5153C22.4273 16.144 22.6647 15.6497 22.7163 15.12C22.8625 13.6088 23 11.7275 23 10C23 8.2725 22.8625 6.39125 22.7163 4.88C22.6647 4.35033 22.4273 3.85601 22.0461 3.48466C21.6649 3.11331 21.1646 2.88891 20.6338 2.85125L19.6237 2.77375L18.5212 2.69875L17.3475 2.62875L16.125 2.57C15.0839 2.52521 14.042 2.50187 13 2.5ZM10.5 6.96875C10.4999 6.84658 10.5297 6.72624 10.5867 6.61819C10.6437 6.51015 10.7263 6.41767 10.8272 6.34879C10.9281 6.27992 11.0443 6.23674 11.1657 6.22301C11.2871 6.20928 11.41 6.22541 11.5238 6.27L11.625 6.32L16.875 9.35C16.9795 9.41032 17.068 9.49498 17.1328 9.5968C17.1976 9.69861 17.2369 9.81456 17.2474 9.93481C17.2578 10.0551 17.239 10.176 17.1927 10.2875C17.1464 10.399 17.0738 10.4976 16.9813 10.575L16.875 10.65L11.625 13.6812C11.5192 13.7425 11.4 13.777 11.2779 13.7817C11.1557 13.7863 11.0342 13.7611 10.9241 13.7081C10.8139 13.6551 10.7183 13.576 10.6457 13.4776C10.5731 13.3793 10.5257 13.2646 10.5075 13.1438L10.5 13.0312V6.96875Z" fill="#025750"/>
</svg>
