<svg width="20" height="20" viewBox="0 0 20 20" fill="none" xmlns="http://www.w3.org/2000/svg">
<path d="M10.0005 0.544922C7.43284 0.544922 7.11061 0.556149 6.10215 0.602043C5.09567 0.648134 4.40866 0.807483 3.80752 1.04129C3.18571 1.28277 2.65824 1.6058 2.13274 2.13151C1.60685 2.65703 1.28383 3.18451 1.04156 3.80615C0.807175 4.4075 0.647634 5.09473 0.602333 6.10085C0.557228 7.10933 0.54541 7.43177 0.54541 9.99947C0.54541 12.5672 0.556834 12.8884 0.60253 13.8969C0.648816 14.9034 0.80816 15.5905 1.04176 16.1916C1.28343 16.8134 1.60645 17.3409 2.13215 17.8664C2.65745 18.3923 3.18492 18.7162 3.80634 18.9577C4.40787 19.1915 5.09508 19.3508 6.10136 19.3969C7.10982 19.4428 7.43185 19.454 9.99928 19.454C12.5671 19.454 12.8883 19.4428 13.8968 19.3969C14.9033 19.3508 15.5911 19.1915 16.1926 18.9577C16.8142 18.7162 17.3409 18.3923 17.8662 17.8664C18.3921 17.3409 18.7151 16.8134 18.9574 16.1918C19.1898 15.5905 19.3493 14.9032 19.3966 13.8971C19.4419 12.8886 19.4537 12.5672 19.4537 9.99947C19.4537 7.43177 19.4419 7.10953 19.3966 6.10104C19.3493 5.09453 19.1898 4.4075 18.9574 3.80635C18.7151 3.18451 18.3921 2.65703 17.8662 2.13151C17.3403 1.6056 16.8144 1.28257 16.192 1.04129C15.5893 0.807483 14.9019 0.648134 13.8954 0.602043C12.887 0.556149 12.5659 0.544922 9.9975 0.544922H10.0005ZM9.15233 2.24871C9.40405 2.24832 9.68492 2.24871 10.0005 2.24871C12.5247 2.24871 12.8239 2.25777 13.8208 2.30307C14.7426 2.34523 15.2428 2.49926 15.5761 2.62866C16.0173 2.80003 16.3319 3.00488 16.6626 3.33579C16.9935 3.66669 17.1983 3.98185 17.3701 4.42306C17.4995 4.75594 17.6537 5.25624 17.6956 6.17806C17.7409 7.17473 17.7508 7.47412 17.7508 9.9973C17.7508 12.5205 17.7409 12.8199 17.6956 13.8165C17.6535 14.7384 17.4995 15.2387 17.3701 15.5715C17.1987 16.0128 16.9935 16.3269 16.6626 16.6576C16.3317 16.9885 16.0175 17.1934 15.5761 17.3648C15.2432 17.4948 14.7426 17.6484 13.8208 17.6905C12.8241 17.7358 12.5247 17.7457 10.0005 17.7457C7.47597 17.7457 7.17679 17.7358 6.18015 17.6905C5.25836 17.648 4.75807 17.494 4.42461 17.3646C3.98341 17.1932 3.66827 16.9883 3.33737 16.6574C3.00647 16.3265 2.80163 16.0122 2.62988 15.5708C2.50047 15.2379 2.34625 14.7376 2.3043 13.8158C2.25899 12.8191 2.24993 12.5197 2.24993 9.99494C2.24993 7.47018 2.25899 7.17236 2.3043 6.17569C2.34645 5.25388 2.50047 4.75357 2.62988 4.4203C2.80124 3.97909 3.00647 3.66394 3.33737 3.33303C3.66827 3.00212 3.98341 2.79727 4.42461 2.62551C4.75787 2.49551 5.25836 2.34188 6.18015 2.29953C7.0523 2.26013 7.39029 2.24832 9.15233 2.24635V2.24871ZM15.0471 3.81856C14.4207 3.81856 13.9125 4.32615 13.9125 4.95271C13.9125 5.57907 14.4207 6.08726 15.0471 6.08726C15.6734 6.08726 16.1816 5.57907 16.1816 4.95271C16.1816 4.32635 15.6734 3.81816 15.0471 3.81816V3.81856ZM10.0005 5.14416C7.31919 5.14416 5.1453 7.31812 5.1453 9.99947C5.1453 12.6808 7.31919 14.8538 10.0005 14.8538C12.6817 14.8538 14.8548 12.6808 14.8548 9.99947C14.8548 7.31812 12.6815 5.14416 10.0003 5.14416H10.0005ZM10.0005 6.84795C11.7408 6.84795 13.1519 8.25885 13.1519 9.99947C13.1519 11.7399 11.7408 13.151 10.0005 13.151C8.25989 13.151 6.84904 11.7399 6.84904 9.99947C6.84904 8.25885 8.25989 6.84795 10.0005 6.84795Z" fill="#025750"/>
</svg>
